<?xml version="1.0" encoding="utf-8"?>
<!-- Generator: Adobe Illustrator 27.1.1, SVG Export Plug-In . SVG Version: 6.00 Build 0)  -->
<svg version="1.1" id="Layer_1" xmlns="http://www.w3.org/2000/svg" xmlns:xlink="http://www.w3.org/1999/xlink" x="0px" y="0px"
	 viewBox="0 0 30 45" style="enable-background:new 0 0 30 45;" xml:space="preserve">
<style type="text/css">
	.st0{fill-rule:evenodd;clip-rule:evenodd;fill:#1C242F;}
	.st1{fill-rule:evenodd;clip-rule:evenodd;fill:#E72F5B;}
</style>
<g>
	<path class="st0" d="M20.8,37.4l0,2.9c2.8,0,4.7,0.5,6.4-2.2c1.3-2,0.9-4.5-0.9-6c0.1-0.3,0.4-0.8,0.6-1.1c1.4-3.1,0.5-6.5-1.7-9
		c-1.1-1.3-2.6-2.2-4.2-2.7c-2.3-0.7-3.9-0.5-6.2-0.7c-0.9-0.1-2.4-0.6-0.8-1.3c0.7-0.4,1.7-0.7,2.5-0.9c1-0.3,4.5-1.6,3.2-3.1
		c-0.8-0.9-1.4-0.7-1.5-2c0-1-0.1-2-0.5-3c-0.7-1.9-2.4-2.5-4.4-2.5L14,1.8c-2.4,0.1-5.4,3-6.8,4.8c-1.8,2.3-3.1,4.9-4,7.7
		c-1,3.2-1.4,6.9-0.9,10.2c0.4,2.3,1.1,4.3,2.5,6.2c0.3,0.4,1.3,1.3,1.4,1.5l-4.1,1.6c0.1,0.1,15.5,0,18.3,0c0.9,0,2.5-0.2,3.2,0.4
		c0.8,0.6,0.8,1.8,0.2,2.5C23.1,37.6,21.8,37.4,20.8,37.4L20.8,37.4z"/>
	<path class="st1" d="M14.9,36.2l0,1.1l0,2.9l0,2.9c0.4-0.2,2.8-1.8,3-1.8c0.2,0,2.4,1.6,2.9,1.8l0-3l0-2.9l0-1.8l-5.9,0L14.9,36.2
		L14.9,36.2z"/>
	<path class="st0" d="M14.9,40.3l0-2.9c-1.7,0-3.3,0-5,0c-1.2,0-3.6-0.4-3.6,1.4c0,1.8,2.4,1.4,3.6,1.4
		C11.5,40.3,13.2,40.3,14.9,40.3L14.9,40.3z"/>
</g>
</svg>
