<?xml version="1.0" encoding="utf-8"?>
<!-- Generator: Adobe Illustrator 27.1.1, SVG Export Plug-In . SVG Version: 6.00 Build 0)  -->
<svg version="1.1" id="Layer_1" xmlns="http://www.w3.org/2000/svg" xmlns:xlink="http://www.w3.org/1999/xlink" x="0px" y="0px"
	 viewBox="0 0 30 45" style="enable-background:new 0 0 30 45;" xml:space="preserve">
<style type="text/css">
	.st0{fill-rule:evenodd;clip-rule:evenodd;fill:#1C242F;}
</style>
<path class="st0" d="M20.9,40.8c2.8,0,4.9,0.5,6.6-2.2c1.3-2.1,0.9-4.6-1-6.2c0.1-0.3,0.5-0.8,0.6-1.2c1.4-3.2,0.5-6.7-1.7-9.3
	c-1.1-1.3-2.7-2.3-4.3-2.8c-2.3-0.7-4-0.5-6.4-0.7c-0.9-0.1-2.5-0.6-0.9-1.4c0.8-0.4,1.7-0.7,2.6-1c1-0.4,4.7-1.6,3.3-3.1
	c-0.8-0.9-1.4-0.8-1.5-2c0-1.1-0.1-2.1-0.5-3.1c-0.8-2-2.5-2.6-4.5-2.6l0.7-4c-2.5,0.1-5.5,3.1-7,5c-1.8,2.3-3.2,5-4.1,7.9
	c-1,3.3-1.5,7.1-0.9,10.5c0.4,2.4,1.2,4.4,2.6,6.4c0.3,0.4,1.3,1.4,1.4,1.6l-4.2,1.7c0.1,0.1,15.9,0,18.8,0c1,0,2.6-0.2,3.3,0.4
	c0.8,0.7,0.9,1.9,0.2,2.6c-0.8,0.8-2.1,0.6-3.2,0.6l0-1.8l-6,0l0,0.7l0,1.2v0c-1.7,0-3.8,0-5.2,0c-1.3,0-3.7-0.4-3.7,1.5
	c0,1.9,2.4,1.5,3.7,1.5c1.4,0,3.5,0,5.1,0v0l0,3c0.4-0.2,2.9-1.8,3-1.8c0.2,0,2.5,1.6,3,1.8L20.9,40.8L20.9,40.8z"/>
</svg>
